# xmcd
#
# Track frame offsets: 
#        180
#        17135
#        29955
#        51845
#        73935
#        89925
#        105877
#        120525
#        140982
#        161390
#        188777
#        205550
#
# Disc length: 2949 seconds
#
# Revision: 0
# Processed by: cddbd v1.4PL0 Copyright (c) Steve Scherf et al.
# Submitted via: ExactAudioCopy v0.90b4
#
DISCID=b00b830c
DTITLE=Robert Ealey - If You Need Me
DYEAR=1995
DGENRE=
TTITLE0=Turn Out The Lights
TTITLE1=One Love One Kiss
TTITLE2=She's A Rocket
TTITLE3=I Had A Dream
TTITLE4=Tica
TTITLE5=Havin' A Party
TTITLE6=All My Worries
TTITLE7=If You Need Me
TTITLE8=The River
TTITLE9=Please Mr. Johnson
TTITLE10=Goin' To New York
TTITLE11=Open Up Your Door
EXTD=
EXTT0=
EXTT1=
EXTT2=
EXTT3=
EXTT4=
EXTT5=
EXTT6=
EXTT7=
EXTT8=
EXTT9=
EXTT10=
EXTT11=
PLAYORDER=
